<svg width="24" height="25" viewBox="0 0 24 25" fill="none" xmlns="http://www.w3.org/2000/svg">
<path d="M23.9187 12.5003C23.9187 18.416 19.5349 23.3066 13.84 24.1002C13.3075 24.1741 12.7627 24.2127 12.2097 24.2127C11.5714 24.2127 10.9446 24.1618 10.3341 24.0633C4.75824 23.1654 0.5 18.3298 0.5 12.5003C0.5 6.03145 5.7428 0.787109 12.2089 0.787109C18.675 0.787109 23.9187 6.03145 23.9187 12.5003Z" fill="#1877F2"/>
<path d="M13.8399 10.1914V12.743H16.9954L16.4958 16.1801H13.8399V24.0992C13.3074 24.173 12.7626 24.2116 12.2096 24.2116C11.5713 24.2116 10.9445 24.1607 10.334 24.0622V16.1801H7.42383V12.743H10.334V9.621C10.334 7.68412 11.9036 6.11328 13.8407 6.11328V6.11492C13.8465 6.11492 13.8514 6.11328 13.8571 6.11328H16.9962V9.0859H14.9451C14.3355 9.0859 13.8407 9.58079 13.8407 10.1906L13.8399 10.1914Z" fill="white"/>
</svg>
