<svg width="24" height="25" viewBox="0 0 24 25" fill="none" xmlns="http://www.w3.org/2000/svg">
<path d="M23.4999 12.4666C23.4999 6.01622 18.2723 0.787109 11.8238 0.787109C5.37528 0.787109 0.147705 6.01622 0.147705 12.4666C0.147705 18.9171 5.37528 24.1462 11.8238 24.1462C18.2723 24.1462 23.4999 18.9171 23.4999 12.4666Z" fill="#FF0209"/>
<path d="M16.7803 17.6399C16.4324 17.6776 16.0763 17.6842 15.735 17.6834C13.0726 17.6809 10.4102 17.6785 7.74857 17.6768C6.91087 17.6768 5.99851 17.6497 5.35116 17.1171C4.62176 16.5155 4.46998 15.4724 4.4109 14.5286C4.32886 13.2351 4.32229 11.9376 4.38957 10.6433C4.42649 9.93259 4.49131 9.20462 4.79734 8.56118C5.01723 8.09912 5.38398 7.68384 5.85328 7.46554C6.3989 7.21194 6.96994 7.25708 7.5574 7.25625C8.96369 7.25461 10.37 7.25379 11.7763 7.25215C13.2383 7.25051 14.7012 7.24969 16.1633 7.24805C16.8541 7.24805 17.5959 7.262 18.1595 7.66169C18.8873 8.17709 19.085 9.15784 19.1761 10.045C19.3443 11.6791 19.3467 13.3303 19.1826 14.9644C19.1145 15.6382 19.0013 16.3506 18.5574 16.8619C18.1177 17.3691 17.4654 17.5644 16.7811 17.6391L16.7803 17.6399Z" fill="white"/>
<path d="M14.2048 12.4672L10.2371 10.1758V14.7586L14.2048 12.4672Z" fill="#FF0209"/>
</svg>
